# xmcd
#
# Track frame offsets:
#	150
#	22250
#	43242
#	65910
#	86522
#	107547
#	132652
#	153347
#	183047
#	204882
#	228182
#	251522
#
# Disc length: 3663 seconds
#
# Revision: 1
# Processed by: cddbd v1.5PL3 Copyright (c) Steve Scherf et al.
# Submitted via: CDex 1.50Beta5
#
DISCID=9f0e4d0c
DTITLE=辛島美登里 - やまとなでしこ
DYEAR=2003
DGENRE=New Age
TTITLE0=菜種時雨 〜natane shigure〜
TTITLE1=帰郷
TTITLE2=東横線
TTITLE3=Blue
TTITLE4=2nd Hometown
TTITLE5=泣きたいのに
TTITLE6=haru.
TTITLE7=Lotus
TTITLE8=Promise
TTITLE9=再会〜part2〜
TTITLE10=爪の月
TTITLE11=サイレント・イヴ(bonus track)
EXTD=
EXTT0=
EXTT1=
EXTT2=
EXTT3=
EXTT4=
EXTT5=
EXTT6=
EXTT7=
EXTT8=
EXTT9=
EXTT10=
EXTT11=
PLAYORDER=
